<svg width="256" height="256" viewBox="0 0 256 256" xmlns="http://www.w3.org/2000/svg">

  <!-- Ficha base blanca -->
  <rect x="20" y="20" width="216" height="216" rx="40" fill="#FFFFFF" stroke="#EAEAEA" stroke-width="8"></rect>

  <!-- Sombra caricatura -->
  <g transform="translate(10,12)">
    <path d="M55 70 
             Q130 55 205 70 
             L185 100 
             Q150 95 135 100 
             L135 195 
             Q115 205 95 195 
             L95 100 
             Q75 95 35 100 Z" fill="#2A2A2A"></path>
  </g>

  <!-- T principal caricaturizada -->
  <path d="M50 60 
           Q130 45 210 60 
           L190 95 
           Q150 90 135 95 
           L135 190 
           Q115 200 95 190 
           L95 95 
           Q75 90 30 95 Z" fill="#000000" stroke="#000000" stroke-width="4" stroke-linejoin="round"></path>

  <!-- Brillo tipo sticker -->
  <path d="M75 70 Q130 60 175 72" stroke="#FFFFFF" stroke-width="6" opacity="0.25" stroke-linecap="round"></path>

</svg>